<svg width="36" height="36" viewBox="0 0 36 36" fill="none" xmlns="http://www.w3.org/2000/svg">
<circle cx="17.5268" cy="17.5268" r="17.5268" fill="black"/>
<path d="M15.0312 24.1576C14.8192 23.9456 14.7001 23.658 14.7001 23.3582C14.7001 23.0583 14.8192 22.7708 15.0312 22.5587L20.6285 16.9614L15.0312 11.3642C14.8252 11.1509 14.7113 10.8653 14.7138 10.5688C14.7164 10.2723 14.8353 9.9887 15.045 9.77904C15.2546 9.56939 15.5383 9.45047 15.8347 9.44789C16.1312 9.44532 16.4168 9.55929 16.6301 9.76527L23.0268 16.162C23.2388 16.374 23.3579 16.6616 23.3579 16.9614C23.3579 17.2613 23.2388 17.5488 23.0268 17.7609L16.6301 24.1576C16.4181 24.3696 16.1305 24.4887 15.8307 24.4887C15.5308 24.4887 15.2433 24.3696 15.0312 24.1576Z" fill="white"/>
</svg>
