<svg width="57" height="57" viewBox="0 0 57 57" fill="none" xmlns="http://www.w3.org/2000/svg">
<path d="M49.875 45.125V47.5H7.125V45.125L11.875 40.375V26.125C11.875 18.7625 16.6962 12.2787 23.75 10.1887V9.5C23.75 8.24022 24.2504 7.03204 25.1412 6.14124C26.032 5.25044 27.2402 4.75 28.5 4.75C29.7598 4.75 30.968 5.25044 31.8588 6.14124C32.7496 7.03204 33.25 8.24022 33.25 9.5V10.1887C40.3038 12.2787 45.125 18.7625 45.125 26.125V40.375L49.875 45.125ZM33.25 49.875C33.25 51.1348 32.7496 52.343 31.8588 53.2338C30.968 54.1246 29.7598 54.625 28.5 54.625C27.2402 54.625 26.032 54.1246 25.1412 53.2338C24.2504 52.343 23.75 51.1348 23.75 49.875" fill="#E15A1D"/>
</svg>
