<svg width="46" height="46" viewBox="0 0 46 46" fill="none" xmlns="http://www.w3.org/2000/svg">
<path d="M22.0656 3.08058C22.5256 2.80745 23.0862 2.80745 23.5319 3.08058L39.2294 12.6256C39.6031 12.8556 39.8331 13.2725 39.8331 13.7037L22.7987 25.1563L5.75 13.846V13.7023C5.75 13.271 5.98 12.8541 6.35375 12.6385L22.0656 3.08058Z" fill="#F3C07B"/>
<path d="M22.793 23.3536L39.123 13.4349C39.1946 13.3922 39.2762 13.3692 39.3596 13.3684C39.443 13.3675 39.5251 13.3888 39.5975 13.43C39.67 13.4712 39.7303 13.5308 39.7722 13.6029C39.814 13.675 39.8361 13.7569 39.836 13.8403V31.579C39.8366 32.0063 39.7272 32.4265 39.5182 32.7991C39.3092 33.1717 39.0077 33.4843 38.6429 33.7065L23.3479 42.9928C23.3087 43.0135 23.2665 43.028 23.2228 43.0359C23.184 43.0467 23.1438 43.052 23.1035 43.0517C22.7738 43.1431 22.4213 43.1002 22.1231 42.9324H22.1317L18.6875 27.3125L22.793 23.3536Z" fill="#FFCE7C"/>
<path d="M22.7988 42.5816V23.3623L6.48313 13.4435C6.41109 13.3972 6.32789 13.3712 6.24229 13.3682C6.1567 13.3652 6.0719 13.3854 5.99682 13.4266C5.92175 13.4679 5.85919 13.5286 5.81575 13.6024C5.77231 13.6762 5.7496 13.7604 5.75001 13.846V31.5848C5.75001 32.4616 6.21001 33.2666 6.94313 33.7122L22.1375 42.941C22.2024 42.9819 22.2769 43.0048 22.3536 43.0072C22.4302 43.0097 22.5061 42.9917 22.5735 42.9551C22.6408 42.9185 22.6972 42.8646 22.7368 42.799C22.7764 42.7333 22.7978 42.6583 22.7988 42.5816Z" fill="#E19747"/>
<path d="M20.8439 38.4992V35.6817C20.8439 35.351 20.6714 35.0492 20.3983 34.8767L16.3733 32.4473C16.1001 32.2892 15.7551 32.476 15.7551 32.7923V35.6098C15.7551 35.9404 15.9276 36.2423 16.2008 36.4148L20.2258 38.8442C20.4989 39.0023 20.8439 38.8154 20.8439 38.4992Z" fill="#D3D3D3"/>
<path d="M16.9049 23.795V17.24L12.1899 16.9237V21.4662C12.1899 21.61 12.2618 21.7537 12.3912 21.84L16.2437 24.1831C16.5312 24.3412 16.9049 24.14 16.9049 23.795Z" fill="#8C5543"/>
<path d="M29.2387 6.55933L12.1899 16.9237L16.9049 19.7987L33.9537 9.4487L29.2387 6.55933Z" fill="#A56953"/>
</svg>
