<svg width="64" height="48" viewBox="0 0 64 48" fill="none" xmlns="http://www.w3.org/2000/svg">
<path opacity="0.15" d="M4.5 45.5C4.5 45.8978 6.55446 46.2794 10.2114 46.5607C13.8684 46.842 18.8283 47 24 47C29.1717 47 34.1316 46.842 37.7886 46.5607C41.4455 46.2794 43.5 45.8978 43.5 45.5C43.5 45.1022 41.4455 44.7206 37.7886 44.4393C34.1316 44.158 29.1717 44 24 44C18.8283 44 13.8684 44.158 10.2114 44.4393C6.55446 44.7206 4.5 45.1022 4.5 45.5Z" fill="#45413C"/>
<path d="M42 40.5C42 41.5609 41.5786 42.5783 40.8284 43.3284C40.0783 44.0786 39.0609 44.5 38 44.5H10C8.93913 44.5 7.92172 44.0786 7.17157 43.3284C6.42143 42.5783 6 41.5609 6 40.5V27C6 22.2261 7.89642 17.6477 11.2721 14.2721C14.6477 10.8964 19.2261 9 24 9C28.7739 9 33.3523 10.8964 36.7279 14.2721C40.1036 17.6477 42 22.2261 42 27V40.5Z" fill="#DAEDF7"/>
<path d="M24 9C19.2261 9 14.6477 10.8964 11.2721 14.2721C7.89642 17.6477 6 22.2261 6 27V32C6 27.2261 7.89642 22.6477 11.2721 19.2721C14.6477 15.8964 19.2261 14 24 14C28.7739 14 33.3523 15.8964 36.7279 19.2721C40.1036 22.6477 42 27.2261 42 32V27C42 22.2261 40.1036 17.6477 36.7279 14.2721C33.3523 10.8964 28.7739 9 24 9Z" fill="white"/>
<path d="M42 40.5C42 41.5609 41.5786 42.5783 40.8284 43.3284C40.0783 44.0786 39.0609 44.5 38 44.5H10C8.93913 44.5 7.92172 44.0786 7.17157 43.3284C6.42143 42.5783 6 41.5609 6 40.5V27C6 22.2261 7.89642 17.6477 11.2721 14.2721C14.6477 10.8964 19.2261 9 24 9C28.7739 9 33.3523 10.8964 36.7279 14.2721C40.1036 17.6477 42 22.2261 42 27V40.5Z" stroke="#45413C" stroke-linecap="round" stroke-linejoin="round"/>
<path d="M17.5 34H30.5V46H17.5V34Z" fill="#C0DCEB"/>
<path d="M17.5 38.5H30.5V40.5H17.5V38.5Z" fill="#ADC4D9"/>
<path d="M45.5 35.92C45.5007 36.0962 45.4548 36.2695 45.367 36.4223C45.2792 36.575 45.1526 36.7019 45 36.79L42 38.5V26L45 27.71C45.1526 27.7981 45.2792 27.925 45.367 28.0777C45.4548 28.2305 45.5007 28.4038 45.5 28.58V35.92ZM2.5 35.92C2.4993 36.0962 2.54518 36.2695 2.63298 36.4223C2.72078 36.575 2.8474 36.7019 3 36.79L6 38.5V26L3 27.71C2.8474 27.7981 2.72078 27.925 2.63298 28.0777C2.54518 28.2305 2.4993 28.4038 2.5 28.58V35.92Z" fill="#ADC4D9" stroke="#45413C" stroke-linecap="round" stroke-linejoin="round"/>
<path d="M24 9C24.5421 6.73925 25.938 4.77597 27.8953 3.52144C29.8526 2.2669 32.2194 1.81844 34.5 2.27" stroke="#45413C" stroke-linecap="round" stroke-linejoin="round"/>
<path d="M33.5 3.5C33.5 4.16304 33.7634 4.79893 34.2322 5.26777C34.7011 5.73661 35.337 6 36 6C36.663 6 37.2989 5.73661 37.7678 5.26777C38.2366 4.79893 38.5 4.16304 38.5 3.5C38.5 2.83696 38.2366 2.20107 37.7678 1.73223C37.2989 1.26339 36.663 1 36 1C35.337 1 34.7011 1.26339 34.2322 1.73223C33.7634 2.20107 33.5 2.83696 33.5 3.5Z" fill="#FF6242" stroke="#45413C" stroke-linecap="round" stroke-linejoin="round"/>
<path d="M17.5 34H30.5V46H17.5V34Z" stroke="#45413C" stroke-linecap="round" stroke-linejoin="round"/>
<path d="M19.5 34H28.5C29.0304 34 29.5391 34.2107 29.9142 34.5858C30.2893 34.9609 30.5 35.4696 30.5 36V38.5H17.5V36C17.5 35.4696 17.7107 34.9609 18.0858 34.5858C18.4609 34.2107 18.9696 34 19.5 34Z" fill="#FF6242" stroke="#45413C" stroke-linecap="round" stroke-linejoin="round"/>
<path d="M33.5 11.71C30.6482 9.93796 27.3575 8.99889 24 8.99889C20.6425 8.99889 17.3518 9.93796 14.5 11.71V24H33.5V11.71Z" stroke="#45413C" stroke-linecap="round" stroke-linejoin="round"/>
<path d="M27.5 25C27.5 26.3261 28.0268 27.5979 28.9645 28.5355C29.9021 29.4732 31.1739 30 32.5 30C33.8261 30 35.0979 29.4732 36.0355 28.5355C36.9732 27.5979 37.5 26.3261 37.5 25C37.5 23.6739 36.9732 22.4021 36.0355 21.4645C35.0979 20.5268 33.8261 20 32.5 20C31.1739 20 29.9021 20.5268 28.9645 21.4645C28.0268 22.4021 27.5 23.6739 27.5 25Z" fill="#00DFEB" stroke="#45413C" stroke-linecap="round" stroke-linejoin="round"/>
<path d="M30.5 25C30.5 25.5304 30.7107 26.0391 31.0858 26.4142C31.4609 26.7893 31.9696 27 32.5 27C33.0304 27 33.5391 26.7893 33.9142 26.4142C34.2893 26.0391 34.5 25.5304 34.5 25C34.5 24.4696 34.2893 23.9609 33.9142 23.5858C33.5391 23.2107 33.0304 23 32.5 23C31.9696 23 31.4609 23.2107 31.0858 23.5858C30.7107 23.9609 30.5 24.4696 30.5 25Z" fill="#627B8C" stroke="#45413C" stroke-linecap="round" stroke-linejoin="round"/>
<path d="M10.5 25C10.5 26.3261 11.0268 27.5979 11.9645 28.5355C12.9021 29.4732 14.1739 30 15.5 30C16.8261 30 18.0979 29.4732 19.0355 28.5355C19.9732 27.5979 20.5 26.3261 20.5 25C20.5 23.6739 19.9732 22.4021 19.0355 21.4645C18.0979 20.5268 16.8261 20 15.5 20C14.1739 20 12.9021 20.5268 11.9645 21.4645C11.0268 22.4021 10.5 23.6739 10.5 25Z" fill="#00DFEB" stroke="#45413C" stroke-linecap="round" stroke-linejoin="round"/>
<path d="M13.5 25C13.5 25.5304 13.7107 26.0391 14.0858 26.4142C14.4609 26.7893 14.9696 27 15.5 27C16.0304 27 16.5391 26.7893 16.9142 26.4142C17.2893 26.0391 17.5 25.5304 17.5 25C17.5 24.4696 17.2893 23.9609 16.9142 23.5858C16.5391 23.2107 16.0304 23 15.5 23C14.9696 23 14.4609 23.2107 14.0858 23.5858C13.7107 23.9609 13.5 24.4696 13.5 25Z" fill="#627B8C" stroke="#45413C" stroke-linecap="round" stroke-linejoin="round"/>
<path d="M58 30.2V31.4154C58 31.6278 57.8278 31.8 57.6154 31.8V31.8C57.403 31.8 57.2308 31.9722 57.2308 32.1846V32.2154C57.2308 32.4278 57.0586 32.6 56.8462 32.6V32.6C56.6337 32.6 56.4615 32.7722 56.4615 32.9846V33.0154C56.4615 33.2278 56.2893 33.4 56.0769 33.4V33.4C55.8645 33.4 55.6923 33.5722 55.6923 33.7846V33.8154C55.6923 34.0278 55.5201 34.2 55.3077 34.2V34.2C55.0953 34.2 54.9231 34.3722 54.9231 34.5846V34.6C54.9231 34.8209 54.744 35 54.5231 35H54.1538C53.729 35 53.3846 34.6556 53.3846 34.2308V33.7846C53.3846 33.5722 53.5568 33.4 53.7692 33.4V33.4C53.9816 33.4 54.1538 33.2278 54.1538 33.0154V32.9846C54.1538 32.7722 54.326 32.6 54.5385 32.6V32.6C54.7509 32.6 54.9231 32.4278 54.9231 32.2154V32.2C54.9231 31.9791 54.744 31.8 54.5231 31.8H48.8C48.3582 31.8 48 31.4418 48 31V31C48 30.5582 48.3582 30.2 48.8 30.2H54.5231C54.744 30.2 54.9231 30.0209 54.9231 29.8V29.7846C54.9231 29.5722 54.7509 29.4 54.5385 29.4V29.4C54.326 29.4 54.1538 29.2278 54.1538 29.0154V28.9846C54.1538 28.7722 53.9816 28.6 53.7692 28.6V28.6C53.5568 28.6 53.3846 28.4278 53.3846 28.2154V27.7692C53.3846 27.3444 53.729 27 54.1538 27H54.5231C54.744 27 54.9231 27.1791 54.9231 27.4V27.4154C54.9231 27.6278 55.0953 27.8 55.3077 27.8V27.8C55.5201 27.8 55.6923 27.9722 55.6923 28.1846V28.2154C55.6923 28.4278 55.8645 28.6 56.0769 28.6V28.6C56.2893 28.6 56.4615 28.7722 56.4615 28.9846V29.0154C56.4615 29.2278 56.6337 29.4 56.8462 29.4V29.4C57.0586 29.4 57.2308 29.5722 57.2308 29.7846V30.2" fill="#FF6242"/>
</svg>
